<svg width="18" height="20" viewBox="0 0 18 20" fill="none" xmlns="http://www.w3.org/2000/svg">
<path d="M9.18334 1.6665H8.81667C8.37464 1.6665 7.95072 1.8421 7.63816 2.15466C7.3256 2.46722 7.15 2.89114 7.15 3.33317V3.48317C7.1497 3.77544 7.07255 4.0625 6.92628 4.31554C6.78002 4.56857 6.56978 4.7787 6.31667 4.92484L5.95834 5.13317C5.70497 5.27945 5.41756 5.35646 5.125 5.35646C4.83244 5.35646 4.54503 5.27945 4.29167 5.13317L4.16667 5.0665C3.78422 4.84589 3.32987 4.78604 2.90334 4.90009C2.47681 5.01415 2.11296 5.29278 1.89167 5.67484L1.70833 5.9915C1.48772 6.37395 1.42787 6.82831 1.54192 7.25484C1.65598 7.68137 1.93461 8.04521 2.31667 8.2665L2.44167 8.34984C2.69356 8.49526 2.90302 8.70408 3.04921 8.95553C3.1954 9.20698 3.27325 9.49231 3.275 9.78317V10.2082C3.27617 10.5019 3.19971 10.7906 3.05337 11.0453C2.90703 11.2999 2.69601 11.5113 2.44167 11.6582L2.31667 11.7332C1.93461 11.9545 1.65598 12.3183 1.54192 12.7448C1.42787 13.1714 1.48772 13.6257 1.70833 14.0082L1.89167 14.3248C2.11296 14.7069 2.47681 14.9855 2.90334 15.0996C3.32987 15.2136 3.78422 15.1538 4.16667 14.9332L4.29167 14.8665C4.54503 14.7202 4.83244 14.6432 5.125 14.6432C5.41756 14.6432 5.70497 14.7202 5.95834 14.8665L6.31667 15.0748C6.56978 15.221 6.78002 15.4311 6.92628 15.6841C7.07255 15.9372 7.1497 16.2242 7.15 16.5165V16.6665C7.15 17.1085 7.3256 17.5325 7.63816 17.845C7.95072 18.1576 8.37464 18.3332 8.81667 18.3332H9.18334C9.62536 18.3332 10.0493 18.1576 10.3618 17.845C10.6744 17.5325 10.85 17.1085 10.85 16.6665V16.5165C10.8503 16.2242 10.9275 15.9372 11.0737 15.6841C11.22 15.4311 11.4302 15.221 11.6833 15.0748L12.0417 14.8665C12.295 14.7202 12.5824 14.6432 12.875 14.6432C13.1676 14.6432 13.455 14.7202 13.7083 14.8665L13.8333 14.9332C14.2158 15.1538 14.6701 15.2136 15.0967 15.0996C15.5232 14.9855 15.887 14.7069 16.1083 14.3248L16.2917 13.9998C16.5123 13.6174 16.5721 13.163 16.4581 12.7365C16.344 12.31 16.0654 11.9461 15.6833 11.7248L15.5583 11.6582C15.304 11.5113 15.093 11.2999 14.9466 11.0453C14.8003 10.7906 14.7238 10.5019 14.725 10.2082V9.7915C14.7238 9.49782 14.8003 9.20904 14.9466 8.95441C15.093 8.69978 15.304 8.48834 15.5583 8.3415L15.6833 8.2665C16.0654 8.04521 16.344 7.68137 16.4581 7.25484C16.5721 6.82831 16.5123 6.37395 16.2917 5.9915L16.1083 5.67484C15.887 5.29278 15.5232 5.01415 15.0967 4.90009C14.6701 4.78604 14.2158 4.84589 13.8333 5.0665L13.7083 5.13317C13.455 5.27945 13.1676 5.35646 12.875 5.35646C12.5824 5.35646 12.295 5.27945 12.0417 5.13317L11.6833 4.92484C11.4302 4.7787 11.22 4.56857 11.0737 4.31554C10.9275 4.0625 10.8503 3.77544 10.85 3.48317V3.33317C10.85 2.89114 10.6744 2.46722 10.3618 2.15466C10.0493 1.8421 9.62536 1.6665 9.18334 1.6665Z" stroke-width="1.5" stroke-linecap="round" stroke-linejoin="round"/>
<path d="M9 12.4998C10.3807 12.4998 11.5 11.3805 11.5 9.99984C11.5 8.61913 10.3807 7.49984 9 7.49984C7.61929 7.49984 6.5 8.61913 6.5 9.99984C6.5 11.3805 7.61929 12.4998 9 12.4998Z" stroke-width="1.5" stroke-linecap="round" stroke-linejoin="round"/>
</svg>
