<svg width="16" height="12" viewBox="0 0 16 12" fill="none" xmlns="http://www.w3.org/2000/svg">
<path d="M9.66659 0.666626H6.33325L4.66659 2.66663H2.66659C2.31296 2.66663 1.97382 2.8071 1.72378 3.05715C1.47373 3.3072 1.33325 3.64634 1.33325 3.99996V9.99996C1.33325 10.3536 1.47373 10.6927 1.72378 10.9428C1.97382 11.1928 2.31296 11.3333 2.66659 11.3333H13.3333C13.6869 11.3333 14.026 11.1928 14.2761 10.9428C14.5261 10.6927 14.6666 10.3536 14.6666 9.99996V3.99996C14.6666 3.64634 14.5261 3.3072 14.2761 3.05715C14.026 2.8071 13.6869 2.66663 13.3333 2.66663H11.3333L9.66659 0.666626Z" stroke="#575757" stroke-linecap="round" stroke-linejoin="round"/>
<path d="M7.99992 8.66663C9.10449 8.66663 9.99992 7.77119 9.99992 6.66663C9.99992 5.56206 9.10449 4.66663 7.99992 4.66663C6.89535 4.66663 5.99992 5.56206 5.99992 6.66663C5.99992 7.77119 6.89535 8.66663 7.99992 8.66663Z" stroke="#575757" stroke-linecap="round" stroke-linejoin="round"/>
</svg>
