<svg width="17" height="16" viewBox="0 0 17 16" fill="none" xmlns="http://www.w3.org/2000/svg">
<path d="M2.5 1.99797C2.50054 1.82806 2.56563 1.65831 2.69526 1.52868C2.69526 1.52868 2.66596 1.55406 2.72619 1.4993C2.7395 1.4872 2.75585 1.47292 2.77541 1.45682C2.81455 1.42458 2.86641 1.38513 2.93228 1.34121C3.06427 1.25323 3.25104 1.14831 3.50241 1.04776C4.00632 0.846196 4.75819 0.666748 5.83333 0.666748C6.9623 0.666748 7.8978 1.04107 8.71045 1.36624L8.74759 1.3811C9.59299 1.71926 10.3129 2.00008 11.1667 2.00008C12.0915 2.00008 12.673 1.8462 13.0024 1.71443C13.1677 1.64831 13.2726 1.58656 13.3281 1.54955C13.3557 1.53117 13.3715 1.51862 13.3768 1.51425C13.6381 1.26842 14.0493 1.27323 14.3047 1.52868C14.4349 1.65885 14.5 1.82947 14.5 2.00008V9.99943C14.5002 10.1703 14.4351 10.3411 14.3047 10.4715L14.304 10.4722C14.2788 10.4973 14.2521 10.5207 14.2246 10.5433C14.1854 10.5756 14.1336 10.615 14.0677 10.6589C13.9357 10.7469 13.749 10.8519 13.4976 10.9524C12.9937 11.154 12.2418 11.3334 11.1667 11.3334C10.0377 11.3334 9.1022 10.9591 8.28955 10.6339L8.25241 10.6191C7.40701 10.2809 6.68713 10.0001 5.83333 10.0001C4.90848 10.0001 4.32701 10.154 3.99759 10.2857C3.93415 10.3111 3.8796 10.3358 3.83333 10.3588L3.83333 14.6667C3.83333 15.0349 3.53486 15.3334 3.16667 15.3334C2.79848 15.3334 2.5 15.0349 2.5 14.6667L2.5 10.0002C2.5 10.0002 2.5 10.0003 2.5 10.0002L2.5 2.00008C2.5 1.99942 2.5 1.99863 2.5 1.99797Z" fill="#EF3654"/>
</svg>
