<svg width="16" height="20" viewBox="0 0 16 20" fill="none" xmlns="http://www.w3.org/2000/svg">
<path d="M11.3333 3.33317H13C13.442 3.33317 13.8659 3.50877 14.1785 3.82133C14.4911 4.13389 14.6666 4.55781 14.6666 4.99984V16.6665C14.6666 17.1085 14.4911 17.5325 14.1785 17.845C13.8659 18.1576 13.442 18.3332 13 18.3332H2.99998C2.55795 18.3332 2.13403 18.1576 1.82147 17.845C1.50891 17.5325 1.33331 17.1085 1.33331 16.6665V4.99984C1.33331 4.55781 1.50891 4.13389 1.82147 3.82133C2.13403 3.50877 2.55795 3.33317 2.99998 3.33317H4.66665M7.99998 9.1665H11.3333M7.99998 13.3332H11.3333M4.66665 9.1665H4.67498M4.66665 13.3332H4.67498M5.49998 1.6665H10.5C10.9602 1.6665 11.3333 2.0396 11.3333 2.49984V4.1665C11.3333 4.62674 10.9602 4.99984 10.5 4.99984H5.49998C5.03974 4.99984 4.66665 4.62674 4.66665 4.1665V2.49984C4.66665 2.0396 5.03974 1.6665 5.49998 1.6665Z" stroke="#E8E8E8" stroke-width="1.5" stroke-linecap="round" stroke-linejoin="round"/>
</svg>
