<svg width="19" height="15" viewBox="0 0 19 15" fill="none"
  xmlns="http://www.w3.org/2000/svg">
  <path d="M15.8334 11.1667H17.5L18.0334 9.05008C18.2334 8.25091 18.2334 7.41508 18.0334 6.61675L17.1417 3.05841C17.0061 2.51795 16.6938 2.03828 16.2545 1.69556C15.8151 1.35284 15.2739 1.16672 14.7167 1.16675H3.33335C2.89133 1.16675 2.4674 1.34234 2.15484 1.6549C1.84228 1.96746 1.66669 2.39139 1.66669 2.83341V11.1667H3.33335M11.6667 11.1667H7.50002M7.50002 11.5834C7.50002 12.734 6.56728 13.6667 5.41669 13.6667C4.26609 13.6667 3.33335 12.734 3.33335 11.5834C3.33335 10.4328 4.26609 9.50008 5.41669 9.50008C6.56728 9.50008 7.50002 10.4328 7.50002 11.5834ZM15.8334 11.5834C15.8334 12.734 14.9006 13.6667 13.75 13.6667C12.5994 13.6667 11.6667 12.734 11.6667 11.5834C11.6667 10.4328 12.5994 9.50008 13.75 9.50008C14.9006 9.50008 15.8334 10.4328 15.8334 11.5834Z" stroke-width="1.5" stroke-linecap="round" stroke-linejoin="round"/>
</svg>
