<svg width="140" height="55" viewBox="0 0 140 55" fill="none"
  xmlns="http://www.w3.org/2000/svg">
  <g clip-path="url(#clip0_114_7018)">
    <path d="M67.1186 49.3804L66.6066 55H73.3888L72.9842 49.3804H67.1186ZM68.5953 26.4645L67.2878 45.1099H72.7488L71.9099 26.4645H68.5953Z" fill="#F07A38"/>
    <mask id="mask0_114_7018" style="mask-type:luminance" maskUnits="userSpaceOnUse" x="0" y="0" width="140" height="54">
      <path d="M10.1403 36.3208V17.0482C10.1471 13.1928 13.3679 10.0142 17.2746 10.0074H27.0376C30.9442 10.0142 34.1651 13.1928 34.1719 17.0482V36.3208C34.1651 40.1762 30.9442 43.3548 27.0376 43.3616H17.2746C13.3679 43.3548 10.1471 40.1762 10.1403 36.3208ZM17.2746 7.41304C11.905 7.41304 7.51147 11.749 7.51147 17.0482V36.3208C7.51147 41.62 11.905 45.9559 17.2746 45.9559H27.0399C32.4095 45.9559 36.803 41.62 36.803 36.3208V17.0482C36.803 11.749 32.4095 7.41304 27.0399 7.41304H17.2746ZM65.1185 7.41304C59.7489 7.41304 55.3554 11.749 55.3554 17.0482V38.879L57.9842 34.5115V17.0482C57.991 13.1928 61.2119 10.0142 65.1185 10.0074H74.8815C78.7881 10.0142 82.009 13.1928 82.0158 17.0482V34.8138L84.6446 39.1159V17.0482C84.6446 11.749 80.2511 7.41304 74.8815 7.41304H65.1185ZM105.826 36.3208V17.0482C105.833 13.1928 109.053 10.0142 112.96 10.0074H122.723C126.63 10.0142 129.851 13.1928 129.857 17.0482V36.3208C129.851 40.1762 126.63 43.3548 122.723 43.3616H112.96C109.053 43.3548 105.833 40.1762 105.826 36.3208ZM112.96 7.41304C107.59 7.41304 103.197 11.749 103.197 17.0482V36.3208C103.197 41.62 107.59 45.9559 112.96 45.9559H122.723C128.093 45.9559 132.486 41.62 132.486 36.3208V17.0482C132.486 11.749 128.093 7.41304 122.723 7.41304H112.96ZM2.62879 36.3208V17.0482C2.62879 9.05086 9.17103 2.59434 17.2746 2.59434H27.0399C35.1434 2.59434 41.6857 9.05086 41.6857 17.0482V36.3208C41.6857 44.3181 35.1434 50.7746 27.0399 50.7746H17.2746C9.17103 50.7746 2.62879 44.3181 2.62879 36.3208ZM17.2746 0C7.72177 0.0180476 0.0182872 7.62059 0 17.0482V36.3208C0.0182872 45.7484 7.72177 53.3532 17.2746 53.3689H27.0376C36.5904 53.3509 44.2962 45.7484 44.3122 36.3208V17.0482C44.2962 7.62059 36.5904 0.0180476 27.0376 0H17.2746ZM65.1185 0C55.5657 0.0180476 47.8622 7.62059 47.8439 17.0482V51.3566L50.4727 46.9891V17.0482C50.4727 9.05086 57.0149 2.59434 65.1185 2.59434H74.8815C82.9851 2.59434 89.5273 9.05086 89.5273 17.0482V47.1064L92.1561 51.4085V17.0482C92.1401 7.62059 84.4343 0.0180476 74.8815 0H65.1185ZM98.3166 36.3208V17.0482C98.3166 9.05086 104.859 2.59434 112.962 2.59434H122.725C130.829 2.59434 137.371 9.05086 137.371 17.0482V36.3208C137.371 44.3181 130.829 50.7746 122.725 50.7746H112.962C104.859 50.7746 98.3166 44.3181 98.3166 36.3208ZM112.96 0C103.407 0.0180476 95.7015 7.62059 95.6855 17.0482V36.3208C95.7038 45.7484 103.407 53.3532 112.96 53.3689H122.723C132.276 53.3509 139.979 45.7484 139.998 36.3208V17.0482C139.982 7.62059 132.276 0.0180476 122.725 0H112.962H112.96Z" fill="white"/>
    </mask>
    <g mask="url(#mask0_114_7018)">
      <path d="M140 0H0V53.3689H140V0Z" fill="url(#paint0_linear_114_7018)"/>
    </g>
  </g>
  <defs>
    <linearGradient id="paint0_linear_114_7018" x1="0.5261" y1="26.6866" x2="140.526" y2="26.6866" gradientUnits="userSpaceOnUse">
      <stop offset="0.12" stop-color="#EF3654"/>
      <stop offset="0.52" stop-color="#EF7A37"/>
      <stop offset="0.61" stop-color="#EF7D35"/>
      <stop offset="0.69" stop-color="#F18931"/>
      <stop offset="0.78" stop-color="#F59D2B"/>
      <stop offset="0.86" stop-color="#FBB822"/>
      <stop offset="0.91" stop-color="#FFCD1C"/>
    </linearGradient>
    <clipPath id="clip0_114_7018">
      <rect width="140" height="55" fill="white"/>
    </clipPath>
  </defs>
</svg>
